<svg width="67" height="18" viewBox="0 0 67 18" fill="none" xmlns="http://www.w3.org/2000/svg">
<path d="M4.58333 14.6399H9.95933V17.8079H0.479333V0.959891H4.58333V14.6399ZM20.2448 17.9759C18.6608 17.9759 17.2048 17.6079 15.8768 16.8719C14.5648 16.1359 13.5168 15.1119 12.7328 13.7999C11.9648 12.4719 11.5808 10.9839 11.5808 9.33589C11.5808 7.68789 11.9648 6.20789 12.7328 4.89589C13.5168 3.58389 14.5648 2.55989 15.8768 1.82389C17.2048 1.08789 18.6608 0.719892 20.2448 0.719892C21.8288 0.719892 23.2768 1.08789 24.5888 1.82389C25.9168 2.55989 26.9568 3.58389 27.7088 4.89589C28.4768 6.20789 28.8608 7.68789 28.8608 9.33589C28.8608 10.9839 28.4768 12.4719 27.7088 13.7999C26.9408 15.1119 25.9008 16.1359 24.5888 16.8719C23.2768 17.6079 21.8288 17.9759 20.2448 17.9759ZM20.2448 14.2319C21.5888 14.2319 22.6608 13.7839 23.4608 12.8879C24.2768 11.9919 24.6848 10.8079 24.6848 9.33589C24.6848 7.84789 24.2768 6.66389 23.4608 5.78389C22.6608 4.88789 21.5888 4.43989 20.2448 4.43989C18.8848 4.43989 17.7968 4.87989 16.9808 5.75989C16.1808 6.63989 15.7808 7.83189 15.7808 9.33589C15.7808 10.8239 16.1808 12.0159 16.9808 12.9119C17.7968 13.7919 18.8848 14.2319 20.2448 14.2319ZM42.688 6.28789C42.384 5.72789 41.944 5.30389 41.368 5.01589C40.808 4.71189 40.144 4.55989 39.376 4.55989C38.048 4.55989 36.984 4.99989 36.184 5.87989C35.384 6.74389 34.984 7.90389 34.984 9.35989C34.984 10.9119 35.4 12.1279 36.232 13.0079C37.08 13.8719 38.24 14.3039 39.712 14.3039C40.72 14.3039 41.568 14.0479 42.256 13.5359C42.96 13.0239 43.472 12.2879 43.792 11.3279H38.584V8.30389H47.512V12.1199C47.208 13.1439 46.688 14.0959 45.952 14.9759C45.232 15.8559 44.312 16.5679 43.192 17.1119C42.072 17.6559 40.808 17.9279 39.4 17.9279C37.736 17.9279 36.248 17.5679 34.936 16.8479C33.64 16.1119 32.624 15.0959 31.888 13.7999C31.168 12.5039 30.808 11.0239 30.808 9.35989C30.808 7.69589 31.168 6.21589 31.888 4.91989C32.624 3.60789 33.64 2.59189 34.936 1.87189C36.232 1.13589 37.712 0.767891 39.376 0.767891C41.392 0.767891 43.088 1.25589 44.464 2.23189C45.856 3.20789 46.776 4.55989 47.224 6.28789H42.688ZM58.1133 17.9759C56.5293 17.9759 55.0733 17.6079 53.7453 16.8719C52.4333 16.1359 51.3853 15.1119 50.6013 13.7999C49.8333 12.4719 49.4493 10.9839 49.4493 9.33589C49.4493 7.68789 49.8333 6.20789 50.6013 4.89589C51.3853 3.58389 52.4333 2.55989 53.7453 1.82389C55.0733 1.08789 56.5293 0.719892 58.1133 0.719892C59.6973 0.719892 61.1453 1.08789 62.4573 1.82389C63.7853 2.55989 64.8253 3.58389 65.5773 4.89589C66.3453 6.20789 66.7293 7.68789 66.7293 9.33589C66.7293 10.9839 66.3453 12.4719 65.5773 13.7999C64.8093 15.1119 63.7693 16.1359 62.4573 16.8719C61.1453 17.6079 59.6973 17.9759 58.1133 17.9759ZM58.1133 14.2319C59.4573 14.2319 60.5293 13.7839 61.3293 12.8879C62.1453 11.9919 62.5533 10.8079 62.5533 9.33589C62.5533 7.84789 62.1453 6.66389 61.3293 5.78389C60.5293 4.88789 59.4573 4.43989 58.1133 4.43989C56.7533 4.43989 55.6653 4.87989 54.8493 5.75989C54.0493 6.63989 53.6493 7.83189 53.6493 9.33589C53.6493 10.8239 54.0493 12.0159 54.8493 12.9119C55.6653 13.7919 56.7533 14.2319 58.1133 14.2319Z" fill="white"/>
</svg>
